HIERARCHY
ROOT SpineBase
{
  OFFSET 0.000000 0.000000 0.000000
  CHANNELS 6 Xposition Yposition Zposition Zrotation Xrotation Yrotation
  JOINT SpineMid
  {
    OFFSET 0.000000 31.016013 0.000000
    CHANNELS 3 Zrotation Xrotation Yrotation
    JOINT SpineShoulder
    {
      OFFSET 0.179894 22.929519 -0.737507
      CHANNELS 3 Zrotation Xrotation Yrotation
      JOINT Neck
      {
        OFFSET 0.054188 7.566077 -0.619740
        CHANNELS 3 Zrotation Xrotation Yrotation
        JOINT Head
        {
          OFFSET -2.933868 15.219007 -1.849203
          CHANNELS 3 Zrotation Xrotation Yrotation
          End Site
          {
            OFFSET 0 0 0
          }
        }
      }
      JOINT ShoulderLeft
      {
        OFFSET -17.026295 -4.515154 3.186080
        CHANNELS 3 Zrotation Xrotation Yrotation
        JOINT ElbowLeft
        {
          OFFSET -3.029979 -28.604350 5.693842
          CHANNELS 3 Zrotation Xrotation Yrotation
          JOINT WristLeft
          {
            OFFSET -0.235546 -22.606123 -3.359060
            CHANNELS 3 Zrotation Xrotation Yrotation
            JOINT HandLeft
            {
              OFFSET -0.141211 -5.293556 -0.038871
              CHANNELS 3 Zrotation Xrotation Yrotation
              JOINT HandTipLeft
              {
                OFFSET 0.349331 -6.973350 -0.609331
                CHANNELS 3 Zrotation Xrotation Yrotation
                End Site
                {
                  OFFSET 0 0 0
                }
              }
              JOINT ThumbLeft
              {
                OFFSET -3.365523 2.790514 -0.654613
                CHANNELS 3 Zrotation Xrotation Yrotation
                End Site
                {
                  OFFSET 0 0 0
                }
              }
            }
          }
        }
      }
      JOINT ShoulderRight
      {
        OFFSET 15.940280 -3.124184 -5.953435
        CHANNELS 3 Zrotation Xrotation Yrotation
        JOINT ElbowRight
        {
          OFFSET 7.194137 -27.678561 -0.009778
          CHANNELS 3 Zrotation Xrotation Yrotation
          JOINT WristRight
          {
            OFFSET -0.399649 -23.387131 -5.571525
            CHANNELS 3 Zrotation Xrotation Yrotation
            JOINT HandRight
            {
              OFFSET -1.541598 -6.359022 0.128461
              CHANNELS 3 Zrotation Xrotation Yrotation
              JOINT HandTipRight
              {
                OFFSET 0.355043 -7.053944 -1.083942
                CHANNELS 3 Zrotation Xrotation Yrotation
                End Site
                {
                  OFFSET 0 0 0
                }
              }
              JOINT ThumbRight
              {
                OFFSET 2.500489 -1.621977 -3.169449
                CHANNELS 3 Zrotation Xrotation Yrotation
                End Site
                {
                  OFFSET 0 0 0
                }
              }
            }
          }
        }
      }
    }
  }
  JOINT HipLeft
  {
    OFFSET -6.993172 0.420317 -2.077623
    CHANNELS 3 Zrotation Xrotation Yrotation
    JOINT KneeLeft
    {
      OFFSET 2.779233 -35.157341 5.062580
      CHANNELS 3 Zrotation Xrotation Yrotation
      JOINT AnkleLeft
      {
        OFFSET 5.058371 -37.276884 7.105306
        CHANNELS 3 Zrotation Xrotation Yrotation
        JOINT FootLeft
        {
          OFFSET 2.762754 -8.371001 -6.304739
          CHANNELS 3 Zrotation Xrotation Yrotation
          End Site
          {
            OFFSET 0 0 0
          }
        }
      }
    }
  }
  JOINT HipRight
  {
    OFFSET 7.629881 1.288711 -5.047619
    CHANNELS 3 Zrotation Xrotation Yrotation
    JOINT KneeRight
    {
      OFFSET 4.234613 -33.199866 2.856675
      CHANNELS 3 Zrotation Xrotation Yrotation
      JOINT AnkleRight
      {
        OFFSET -1.105325 -39.715682 9.592418
        CHANNELS 3 Zrotation Xrotation Yrotation
        JOINT FootRight
        {
          OFFSET -0.387411 -9.408498 -4.618055
          CHANNELS 3 Zrotation Xrotation Yrotation
          End Site
          {
            OFFSET 0 0 0
          }
        }
      }
    }
  }
}
MOTION
Frames: 14
Frame Time: 0.033333
-17.487903 67.787955 348.006638 -26.140697 -19.138221 16.669203 0.938703 -1.493097 -22.235036 1.178754 0.688831 -1.185393 -36.138282 10.735912 5.799841 0.000000 0.000000 0.000000 38.088514 41.998625 -10.853035 35.206069 -9.436850 4.530804 0.466930 6.197017 3.851139 -1.295914 -8.437223 0.375364 0.000000 0.000000 0.000000 0.000000 0.000000 0.000000 -85.606438 12.853018 56.002398 134.941241 -1.774122 23.014107 12.138276 24.614921 -9.897971 -7.740323 -9.557327 4.751184 0.000000 0.000000 0.000000 0.000000 0.000000 0.000000 20.357938 47.672223 -19.087384 -0.381625 -45.109507 -14.186062 4.023606 7.242098 16.881479 0.000000 0.000000 0.000000 37.587662 7.981286 -23.830194 -0.037557 4.803210 0.313772 -17.312019 65.183608 5.659938 0.000000 0.000000 0.000000
-16.494490 67.962251 348.090489 -23.483912 -19.701336 23.224090 0.480747 -1.111430 -28.213696 1.570571 0.710883 -1.131131 -35.259667 9.743522 4.593805 0.000000 0.000000 0.000000 32.700084 41.767583 -9.418137 36.885234 -5.009270 3.134956 -0.702627 4.635607 4.390617 1.373913 -4.673004 -0.453730 0.000000 0.000000 0.000000 0.000000 0.000000 0.000000 -88.074306 16.589864 62.727624 138.506915 -11.175027 33.016541 19.649895 23.989845 -9.078069 -22.382997 -8.883783 -1.672991 0.000000 0.000000 0.000000 0.000000 0.000000 0.000000 25.645262 47.366030 -27.985629 -2.646514 -45.500615 -15.808119 0.746435 2.152440 19.965801 0.000000 0.000000 0.000000 34.491607 5.310874 -29.283036 0.429864 5.926119 0.360042 -7.519944 52.062522 -1.670155 0.000000 0.000000 0.000000
-15.344017 68.597505 348.160960 -20.933299 -20.263140 20.033180 0.184380 -0.513799 -24.426699 1.814368 0.741777 -1.069177 -35.084241 8.803132 3.680619 0.000000 0.000000 0.000000 27.721648 41.274200 -7.997754 38.472496 -1.075545 1.867180 -3.122511 5.409288 3.645948 5.151196 -2.815009 -0.056605 0.000000 0.000000 0.000000 0.000000 0.000000 0.000000 -94.418324 17.214607 70.628807 154.115565 -18.187666 48.793824 18.857809 17.880470 -1.089317 -31.921007 0.761123 -6.189739 0.000000 0.000000 0.000000 0.000000 0.000000 0.000000 17.506682 47.472667 -22.430488 -1.133317 -40.815223 -13.680568 4.707662 4.173942 16.978822 0.000000 0.000000 0.000000 30.800324 10.008215 -26.540809 1.338071 5.229155 0.324787 0.669754 43.933898 -6.582255 0.000000 0.000000 0.000000
-14.124404 69.637104 348.033232 -18.354499 -20.669364 11.634026 -0.191110 0.013069 -15.389805 2.076568 0.707829 -1.016780 -34.832978 7.868490 2.813042 0.000000 0.000000 0.000000 24.342753 40.523033 -7.151378 37.170659 3.650576 -0.244484 0.017401 2.525538 5.032552 3.448207 1.459839 -1.890303 0.000000 0.000000 0.000000 0.000000 0.000000 0.000000 -97.209926 18.093945 73.357164 165.287336 -20.576122 58.536499 14.680472 14.023738 5.624408 -37.262256 4.097276 -5.155020 0.000000 0.000000 0.000000 0.000000 0.000000 0.000000 7.001571 46.382950 -10.584554 -5.263383 -35.288098 -14.379318 11.076545 9.974714 15.022192 0.000000 0.000000 0.000000 25.292978 17.035468 -18.362515 2.358185 4.246905 0.243277 12.021823 35.373121 -12.771398 0.000000 0.000000 0.000000
-14.122682 70.984237 348.159145 -17.245256 -21.069034 5.031670 -0.138751 0.215555 -8.574566 2.252529 0.822148 -0.976193 -32.457763 6.554700 1.470885 0.000000 0.000000 0.000000 21.811413 39.602958 -6.380201 35.625824 8.213143 -2.123305 2.247278 3.888065 4.625339 1.990355 1.982608 -1.716908 0.000000 0.000000 0.000000 0.000000 0.000000 0.000000 -94.628965 21.855833 72.993845 166.838544 -21.742970 61.575744 10.369141 11.399573 11.068107 -38.438815 7.808263 -4.540409 0.000000 0.000000 0.000000 0.000000 0.000000 0.000000 4.221266 45.175017 -3.436462 -11.389405 -31.592922 -15.912896 18.154920 16.620324 11.950730 0.000000 0.000000 0.000000 23.331326 22.104768 -11.947625 0.562740 1.696888 -0.245109 16.755055 29.285134 -14.058909 0.000000 0.000000 0.000000
-12.731103 71.852846 347.633870 -14.647238 -20.816216 -7.188636 -0.539544 0.221816 4.307551 2.170060 0.785845 -0.872102 -32.338124 5.295382 0.536947 0.000000 0.000000 0.000000 19.669706 39.004874 -5.983502 32.987839 12.572217 -3.675051 5.798083 5.148437 4.774943 -1.325741 1.531431 -1.819564 0.000000 0.000000 0.000000 0.000000 0.000000 0.000000 -89.233579 25.428714 67.320189 161.618971 -23.677212 57.318867 4.744106 9.661127 15.033632 -30.137188 13.489058 -8.306125 0.000000 0.000000 0.000000 0.000000 0.000000 0.000000 -7.686868 40.663027 12.337041 -13.980441 -26.522372 -15.140486 18.726599 21.238481 14.466037 0.000000 0.000000 0.000000 12.598163 27.467652 2.822129 2.050233 -0.173449 -0.282133 24.002101 29.435563 -18.106820 0.000000 0.000000 0.000000
-10.390245 72.503353 346.576293 -11.246198 -20.080822 -20.627232 -0.620783 0.016359 18.543881 1.699378 0.728693 -0.678501 -32.339858 3.664405 -0.579873 0.000000 0.000000 0.000000 15.917359 38.437694 -5.218397 31.033648 16.804116 -4.560595 7.831182 6.037819 4.919238 -2.858303 1.596539 -1.846453 0.000000 0.000000 0.000000 0.000000 0.000000 0.000000 -71.117805 30.151027 49.905467 140.174217 -27.601470 39.722262 -1.341162 9.199143 16.057493 -14.535834 17.075679 -15.383669 0.000000 0.000000 0.000000 0.000000 0.000000 0.000000 -20.168137 31.899190 28.036089 -12.182135 -22.366037 -12.677892 20.701762 21.535303 12.865040 0.000000 0.000000 0.000000 -3.249098 27.700165 21.423881 5.679692 -2.316209 0.028631 27.133408 17.925523 -17.291606 0.000000 0.000000 0.000000
-8.163766 73.285031 344.860838 -7.944023 -18.755667 -28.012309 -0.335560 -0.106026 26.648349 0.988152 0.515011 -0.462354 -31.654991 1.620058 -1.904751 0.000000 0.000000 0.000000 11.749500 37.568631 -4.331311 29.241471 20.636564 -4.958796 8.222842 6.483373 4.817473 -3.271880 0.447819 -1.137673 0.000000 0.000000 0.000000 0.000000 0.000000 0.000000 -28.782110 23.962603 15.227052 92.073213 -17.682290 0.897571 -5.412721 9.709174 12.245302 -3.617129 21.885674 -18.207801 0.000000 0.000000 0.000000 0.000000 0.000000 0.000000 -25.764344 23.642942 34.719776 -8.800693 -19.789579 -10.195870 20.036773 19.485388 11.627597 0.000000 0.000000 0.000000 -13.159553 21.827111 31.232386 9.243456 -2.331125 0.482303 27.800421 17.217578 -17.161739 0.000000 0.000000 0.000000
-6.038618 73.982322 343.092744 -5.330054 -17.290728 -31.943567 0.155020 -0.038054 31.084456 0.181243 0.242281 -0.266072 -30.527433 -0.654656 -3.221795 0.000000 0.000000 0.000000 8.098104 36.778306 -3.604249 28.353408 22.952429 -4.820024 6.233117 6.299735 4.124411 -1.527183 -0.524936 0.231282 0.000000 0.000000 0.000000 0.000000 0.000000 0.000000 -1.726046 5.620970 -2.200410 62.969776 13.629657 -25.442347 -15.115944 16.851566 -1.392859 6.994633 14.114593 -2.609455 0.000000 0.000000 0.000000 0.000000 0.000000 0.000000 -29.715318 17.084299 37.562801 -3.106163 -18.720720 -7.580430 15.752132 14.455822 11.671007 0.000000 0.000000 0.000000 -18.292272 14.469466 35.135920 11.703188 0.142237 0.620220 31.327158 24.053863 -19.432207 0.000000 0.000000 0.000000
-4.670969 74.477568 340.704897 -3.335574 -15.533265 -32.575932 0.787194 0.208677 32.050994 -0.686331 -0.044364 -0.095489 -29.073085 -2.551274 -4.206656 0.000000 0.000000 0.000000 5.887367 35.412676 -3.212636 26.512116 24.849210 -4.836557 5.817412 4.112463 4.563415 -1.219427 1.165874 0.087445 0.000000 0.000000 0.000000 0.000000 0.000000 0.000000 8.105308 -4.555051 -6.068434 52.161675 29.279701 -33.515167 -13.442779 18.460654 -6.238610 6.807038 12.343109 3.278725 0.000000 0.000000 0.000000 0.000000 0.000000 0.000000 -32.845804 12.687255 37.183008 4.341047 -17.829158 -4.439408 12.179896 12.056175 10.640862 0.000000 0.000000 0.000000 -20.243733 7.613913 34.597163 15.818257 2.236859 1.255881 37.436002 31.885380 -26.308037 0.000000 0.000000 0.000000
-3.383806 74.909554 338.209840 -0.770464 -13.925175 -29.863768 0.819826 0.236108 29.779007 -0.633996 -0.046458 0.020236 -28.886643 -3.915500 -4.761836 0.000000 0.000000 0.000000 0.793874 34.071738 -2.393832 27.259588 25.962142 -4.032440 0.701066 8.243059 1.254066 1.928816 -1.537544 3.006812 0.000000 0.000000 0.000000 0.000000 0.000000 0.000000 10.959680 -8.820353 -6.518712 45.021283 39.861806 -35.804870 -9.729683 20.571043 -10.641279 5.877554 5.935507 9.939258 0.000000 0.000000 0.000000 0.000000 0.000000 0.000000 -36.792878 10.010093 33.735525 12.930904 -16.141353 -0.793040 2.471128 3.602568 12.632783 0.000000 0.000000 0.000000 -22.142795 1.203366 30.477799 21.787112 4.358355 1.994342 48.232350 58.249045 -45.096399 0.000000 0.000000 0.000000
-2.620315 75.192700 335.883788 1.134021 -12.374837 -24.248548 0.837572 0.115096 24.446380 -0.535641 -0.101998 0.103416 -28.555209 -5.000558 -5.149504 0.000000 0.000000 0.000000 -3.660230 33.043658 -1.811423 27.927627 26.799772 -2.998264 -1.991191 9.037130 -0.032604 3.274607 -2.706721 4.290135 0.000000 0.000000 0.000000 0.000000 0.000000 0.000000 10.499491 -9.629154 -6.093100 38.478683 45.066577 -33.169569 -2.076259 21.452267 -11.990879 2.218872 -3.071784 12.477140 0.000000 0.000000 0.000000 0.000000 0.000000 0.000000 -38.640354 11.275221 28.350064 17.911248 -13.611692 1.829126 2.122669 2.776757 9.938890 0.000000 0.000000 0.000000 -24.585770 -2.652233 23.753781 28.286560 4.716962 2.526902 69.039236 69.217667 -71.875070 0.000000 0.000000 0.000000
-2.950273 75.644280 333.269067 2.392211 -10.835513 -22.728533 0.735634 0.005184 23.082090 -0.422496 -0.072624 0.151103 -27.929705 -6.153717 -5.562308 0.000000 0.000000 0.000000 -6.323679 32.057331 -1.632369 28.416510 27.389064 -2.306364 -4.487215 7.427141 -0.634056 4.585180 1.323069 4.284887 0.000000 0.000000 0.000000 0.000000 0.000000 0.000000 6.990493 -6.465516 -4.960333 33.549188 41.241389 -26.240278 -1.468764 15.705958 -7.630221 1.956592 0.658694 8.794605 0.000000 0.000000 0.000000 0.000000 0.000000 0.000000 -37.720011 9.434852 25.555948 19.946851 -8.660326 3.495231 5.598226 6.698345 6.467169 0.000000 0.000000 0.000000 -26.750899 -5.507948 21.257590 35.514729 1.605365 3.623660 91.077655 74.167895 -101.375965 0.000000 0.000000 0.000000
-4.466055 76.125787 330.649397 2.865260 -9.472897 -21.200530 0.645509 -0.063311 21.584423 -0.277845 0.048327 0.161290 -26.414122 -7.047564 -5.784680 0.000000 0.000000 0.000000 -6.769754 31.334116 -1.828985 26.308615 28.496668 -1.849523 -4.093346 7.401102 -0.748463 3.756761 3.960105 3.931666 0.000000 0.000000 0.000000 0.000000 0.000000 0.000000 6.977048 -5.012426 -4.237845 25.789467 41.620412 -20.976355 2.907899 11.842760 -5.448276 0.205988 -0.377406 7.636781 0.000000 0.000000 0.000000 0.000000 0.000000 0.000000 -34.148809 8.223625 22.974726 19.233061 -2.607646 4.334812 6.259505 10.393312 5.739768 0.000000 0.000000 0.000000 -27.285579 -6.424888 19.200763 41.534445 -2.640348 5.283704 101.207548 75.751099 -118.199773 0.000000 0.000000 0.000000
